<svg width="8" height="8" viewBox="0 0 8 8" fill="none" xmlns="http://www.w3.org/2000/svg">
<path d="M7.56202 3.37502H7.56247H4.62498V0.443057C4.62498 0.201756 4.42959 0 4.18829 0H3.81242C3.57119 0 3.37496 0.201756 3.37496 0.443057V3.37502H0.437528C0.196358 3.37502 0 3.57014 0 3.81151V4.18953C0 4.4307 0.196293 4.62497 0.437528 4.62497H3.37502V7.56754C3.37502 7.80871 3.57119 7.99993 3.81249 7.99993H4.18836C4.42966 7.99993 4.62504 7.80864 4.62504 7.56754V4.62497H7.56202C7.80332 4.62497 8 4.43063 8 4.18953V3.81151C8 3.57014 7.80332 3.37502 7.56202 3.37502Z" fill="#191919"/>
</svg>
